# xmcd CD database file generated by LOLA_Freedb v0.9beta0
# 
# Track frame offsets:
#      150
#      39214
#      58129
#      96291
#      133563
#      149517
#      170337
#      199214
#      214716
# 
# Disc length: 3150 seconds
# 
# Revision: 1 
# Processed by: cddbd v1.5.2PL0 Copyright (c) Steve Scherf et al.
# Submitted via: LOLA_Freedb v0.9beta0
# 
DISCID=830c4c09
DTITLE=Chris Barber-Jazz Band und das groﬂe Rundfunkorchester Berlin - New Orleans Symhony  CD 1
DYEAR=1989
DGENRE=Jazz
TTITLE0=Chris Barber-Jazz Band und das groﬂe Rundfunkorchester Berlin - A New Orleans Overture
TTITLE1=Bourbon Street Parade
TTITLE2=Lead On Me
TTITLE3=Goin¥ Up The River
TTITLE4=South Rampart Street Parade
TTITLE5=Music From A Land Of Dreams
TTITLE6=Mood Indigo
TTITLE7=Harlrm Rag
TTITLE8=Wild Cat Blues
EXTD=YEAR: 1989
EXTT0=
EXTT1=
EXTT2=
EXTT3=
EXTT4=
EXTT5=
EXTT6=
EXTT7=
EXTT8=
PLAYORDER=
